<svg xmlns="http://www.w3.org/2000/svg" tabindex="0" id="logo" viewBox="0 0 106 106" width="1em" height="1em" class="w-[146px] h-[40px]"><g transform="translate(3,3) scale(1,1)" style="color: rgb(37, 37, 37);"><g><g transform="translate(-7.142857142857142, -7.142857142857142) scale(3.571428571428571)"><g data-name="Layer 14"><path d="M16,2A14,14,0,1,0,30,16,14,14,0,0,0,16,2ZM15,7a1,1,0,0,1,2,0v7a1,1,0,0,1-2,0Zm1,17A8,8,0,0,1,12,9.07a1,1,0,0,1,1.36.36A1,1,0,0,1,13,10.8a6,6,0,1,0,5.85-.08A1,1,0,0,1,19.81,9,8,8,0,0,1,16,24Z" fill="#252525"></path></g></g></g></g></svg>
